<mxfile host="app.diagrams.net" agent="Mozilla/5.0 (Windows NT 10.0; Win64; x64) AppleWebKit/537.36 (KHTML, like Gecko) Chrome/129.0.0.0 Safari/537.36 Edg/129.0.0.0" version="24.7.16">
  <diagram name="Page-1" id="2YBvvXClWsGukQMizWep">
    <mxGraphModel dx="1909" dy="569" grid="1" gridSize="10" guides="1" tooltips="1" connect="1" arrows="1" fold="1" page="1" pageScale="1" pageWidth="850" pageHeight="1100" math="0" shadow="0">
      <root>
        <mxCell id="0" />
        <mxCell id="1" parent="0" />
        <mxCell id="HJcxqOJo00fccfhUoreV-33" value="" style="group" vertex="1" connectable="0" parent="1">
          <mxGeometry x="-310" y="80" width="90" height="1800" as="geometry" />
        </mxCell>
        <mxCell id="23khw75I1qNBK4fEZWJX-6" value="&lt;div&gt;Event&lt;/div&gt;&lt;div&gt;Endpoints&lt;/div&gt;" style="shape=umlBoundary;whiteSpace=wrap;html=1;" parent="HJcxqOJo00fccfhUoreV-33" vertex="1">
          <mxGeometry x="-10" width="100" height="80" as="geometry" />
        </mxCell>
        <mxCell id="23khw75I1qNBK4fEZWJX-24" value="" style="endArrow=none;dashed=1;html=1;strokeWidth=1;rounded=0;strokeColor=default;entryX=0.501;entryY=1.021;entryDx=0;entryDy=0;entryPerimeter=0;" parent="HJcxqOJo00fccfhUoreV-33" target="23khw75I1qNBK4fEZWJX-6" edge="1">
          <mxGeometry width="50" height="50" relative="1" as="geometry">
            <mxPoint x="40" y="1800" as="sourcePoint" />
            <mxPoint x="42.5" y="219.70656506447838" as="targetPoint" />
          </mxGeometry>
        </mxCell>
        <mxCell id="23khw75I1qNBK4fEZWJX-38" value="" style="shape=umlLifeline;perimeter=lifelinePerimeter;whiteSpace=wrap;html=1;container=1;dropTarget=0;collapsible=0;recursiveResize=0;outlineConnect=0;portConstraint=eastwest;newEdgeStyle={&quot;curved&quot;:0,&quot;rounded&quot;:0};participant=umlActor;" parent="1" vertex="1">
          <mxGeometry x="-530" y="100.01" width="20" height="1779.99" as="geometry" />
        </mxCell>
        <mxCell id="23khw75I1qNBK4fEZWJX-60" value="db" style="shape=umlLifeline;perimeter=lifelinePerimeter;whiteSpace=wrap;html=1;container=0;dropTarget=0;collapsible=0;recursiveResize=0;outlineConnect=0;portConstraint=eastwest;newEdgeStyle={&quot;curved&quot;:0,&quot;rounded&quot;:0};participant=umlBoundary;" parent="1" vertex="1">
          <mxGeometry x="1350" y="98.99000000000001" width="50" height="1781" as="geometry" />
        </mxCell>
        <mxCell id="HJcxqOJo00fccfhUoreV-1" value="" style="html=1;points=[[0,0,0,0,5],[0,1,0,0,-5],[1,0,0,0,5],[1,1,0,0,-5]];perimeter=orthogonalPerimeter;outlineConnect=0;targetShapes=umlLifeline;portConstraint=eastwest;newEdgeStyle={&quot;curved&quot;:0,&quot;rounded&quot;:0};" vertex="1" parent="23khw75I1qNBK4fEZWJX-60">
          <mxGeometry x="20" y="131" width="10" height="39" as="geometry" />
        </mxCell>
        <mxCell id="HJcxqOJo00fccfhUoreV-5" value="" style="html=1;points=[[0,0,0,0,5],[0,1,0,0,-5],[1,0,0,0,5],[1,1,0,0,-5]];perimeter=orthogonalPerimeter;outlineConnect=0;targetShapes=umlLifeline;portConstraint=eastwest;newEdgeStyle={&quot;curved&quot;:0,&quot;rounded&quot;:0};" vertex="1" parent="23khw75I1qNBK4fEZWJX-60">
          <mxGeometry x="20" y="201" width="10" height="49" as="geometry" />
        </mxCell>
        <mxCell id="HJcxqOJo00fccfhUoreV-24" value="" style="html=1;points=[[0,0,0,0,5],[0,1,0,0,-5],[1,0,0,0,5],[1,1,0,0,-5]];perimeter=orthogonalPerimeter;outlineConnect=0;targetShapes=umlLifeline;portConstraint=eastwest;newEdgeStyle={&quot;curved&quot;:0,&quot;rounded&quot;:0};" vertex="1" parent="23khw75I1qNBK4fEZWJX-60">
          <mxGeometry x="20" y="581" width="10" height="39" as="geometry" />
        </mxCell>
        <mxCell id="HJcxqOJo00fccfhUoreV-57" value="" style="html=1;points=[[0,0,0,0,5],[0,1,0,0,-5],[1,0,0,0,5],[1,1,0,0,-5]];perimeter=orthogonalPerimeter;outlineConnect=0;targetShapes=umlLifeline;portConstraint=eastwest;newEdgeStyle={&quot;curved&quot;:0,&quot;rounded&quot;:0};" vertex="1" parent="23khw75I1qNBK4fEZWJX-60">
          <mxGeometry x="20" y="831" width="10" height="29" as="geometry" />
        </mxCell>
        <mxCell id="HJcxqOJo00fccfhUoreV-51" value="" style="html=1;points=[[0,0,0,0,5],[0,1,0,0,-5],[1,0,0,0,5],[1,1,0,0,-5]];perimeter=orthogonalPerimeter;outlineConnect=0;targetShapes=umlLifeline;portConstraint=eastwest;newEdgeStyle={&quot;curved&quot;:0,&quot;rounded&quot;:0};" vertex="1" parent="23khw75I1qNBK4fEZWJX-60">
          <mxGeometry x="20" y="721" width="10" height="40" as="geometry" />
        </mxCell>
        <mxCell id="HJcxqOJo00fccfhUoreV-65" value="" style="html=1;points=[[0,0,0,0,5],[0,1,0,0,-5],[1,0,0,0,5],[1,1,0,0,-5]];perimeter=orthogonalPerimeter;outlineConnect=0;targetShapes=umlLifeline;portConstraint=eastwest;newEdgeStyle={&quot;curved&quot;:0,&quot;rounded&quot;:0};" vertex="1" parent="23khw75I1qNBK4fEZWJX-60">
          <mxGeometry x="20" y="891" width="10" height="29" as="geometry" />
        </mxCell>
        <mxCell id="HJcxqOJo00fccfhUoreV-87" value="" style="html=1;points=[[0,0,0,0,5],[0,1,0,0,-5],[1,0,0,0,5],[1,1,0,0,-5]];perimeter=orthogonalPerimeter;outlineConnect=0;targetShapes=umlLifeline;portConstraint=eastwest;newEdgeStyle={&quot;curved&quot;:0,&quot;rounded&quot;:0};" vertex="1" parent="23khw75I1qNBK4fEZWJX-60">
          <mxGeometry x="20" y="1161" width="10" height="39" as="geometry" />
        </mxCell>
        <mxCell id="HJcxqOJo00fccfhUoreV-92" value="" style="html=1;points=[[0,0,0,0,5],[0,1,0,0,-5],[1,0,0,0,5],[1,1,0,0,-5]];perimeter=orthogonalPerimeter;outlineConnect=0;targetShapes=umlLifeline;portConstraint=eastwest;newEdgeStyle={&quot;curved&quot;:0,&quot;rounded&quot;:0};" vertex="1" parent="23khw75I1qNBK4fEZWJX-60">
          <mxGeometry x="20" y="1241" width="10" height="39" as="geometry" />
        </mxCell>
        <mxCell id="HJcxqOJo00fccfhUoreV-97" value="" style="html=1;points=[[0,0,0,0,5],[0,1,0,0,-5],[1,0,0,0,5],[1,1,0,0,-5]];perimeter=orthogonalPerimeter;outlineConnect=0;targetShapes=umlLifeline;portConstraint=eastwest;newEdgeStyle={&quot;curved&quot;:0,&quot;rounded&quot;:0};" vertex="1" parent="23khw75I1qNBK4fEZWJX-60">
          <mxGeometry x="20" y="1091" width="10" height="39" as="geometry" />
        </mxCell>
        <mxCell id="HJcxqOJo00fccfhUoreV-139" value="" style="html=1;points=[[0,0,0,0,5],[0,1,0,0,-5],[1,0,0,0,5],[1,1,0,0,-5]];perimeter=orthogonalPerimeter;outlineConnect=0;targetShapes=umlLifeline;portConstraint=eastwest;newEdgeStyle={&quot;curved&quot;:0,&quot;rounded&quot;:0};" vertex="1" parent="23khw75I1qNBK4fEZWJX-60">
          <mxGeometry x="20" y="1431.01" width="10" height="38.99" as="geometry" />
        </mxCell>
        <mxCell id="HJcxqOJo00fccfhUoreV-150" value="" style="html=1;points=[[0,0,0,0,5],[0,1,0,0,-5],[1,0,0,0,5],[1,1,0,0,-5]];perimeter=orthogonalPerimeter;outlineConnect=0;targetShapes=umlLifeline;portConstraint=eastwest;newEdgeStyle={&quot;curved&quot;:0,&quot;rounded&quot;:0};" vertex="1" parent="23khw75I1qNBK4fEZWJX-60">
          <mxGeometry x="20" y="1571.01" width="10" height="38.99" as="geometry" />
        </mxCell>
        <mxCell id="Z36fV5GY94czJx9EPfyB-10" value="" style="html=1;points=[[0,0,0,0,5],[0,1,0,0,-5],[1,0,0,0,5],[1,1,0,0,-5]];perimeter=orthogonalPerimeter;outlineConnect=0;targetShapes=umlLifeline;portConstraint=eastwest;newEdgeStyle={&quot;curved&quot;:0,&quot;rounded&quot;:0};" parent="1" vertex="1">
          <mxGeometry x="-275" y="230" width="10" height="310" as="geometry" />
        </mxCell>
        <mxCell id="Z36fV5GY94czJx9EPfyB-11" value="Send(ListSectionsWithPriceRange)&lt;div&gt;&lt;div style=&quot;font-size: 10px;&quot;&gt;return: SectionWithPriceRange[]&lt;/div&gt;&lt;/div&gt;" style="endArrow=block;endFill=1;html=1;edgeStyle=orthogonalEdgeStyle;align=left;verticalAlign=top;rounded=0;fontSize=10;" parent="1" target="Z36fV5GY94czJx9EPfyB-12" edge="1">
          <mxGeometry x="-1" relative="1" as="geometry">
            <mxPoint x="-265" y="230" as="sourcePoint" />
            <mxPoint x="-10" y="230" as="targetPoint" />
            <Array as="points">
              <mxPoint x="-265" y="231" />
            </Array>
          </mxGeometry>
        </mxCell>
        <mxCell id="Z36fV5GY94czJx9EPfyB-15" value="" style="html=1;verticalAlign=bottom;endArrow=open;dashed=1;endSize=8;curved=0;rounded=0;exitX=0;exitY=1;exitDx=0;exitDy=-5;exitPerimeter=0;" parent="1" source="HJcxqOJo00fccfhUoreV-1" target="Z36fV5GY94czJx9EPfyB-13" edge="1">
          <mxGeometry relative="1" as="geometry">
            <mxPoint x="590" y="310" as="sourcePoint" />
            <mxPoint x="245" y="359.79999999999995" as="targetPoint" />
          </mxGeometry>
        </mxCell>
        <mxCell id="HJcxqOJo00fccfhUoreV-4" value="&amp;lt;section[]&amp;gt;" style="edgeLabel;html=1;align=center;verticalAlign=middle;resizable=0;points=[];fontSize=10;" vertex="1" connectable="0" parent="Z36fV5GY94czJx9EPfyB-15">
          <mxGeometry x="0.0731" relative="1" as="geometry">
            <mxPoint as="offset" />
          </mxGeometry>
        </mxCell>
        <mxCell id="Z36fV5GY94czJx9EPfyB-16" value="" style="endArrow=block;endFill=1;html=1;edgeStyle=orthogonalEdgeStyle;align=left;verticalAlign=top;rounded=0;fontSize=10;" parent="1" target="HJcxqOJo00fccfhUoreV-1" edge="1" source="Z36fV5GY94czJx9EPfyB-13">
          <mxGeometry x="-1" relative="1" as="geometry">
            <mxPoint x="245" y="230" as="sourcePoint" />
            <mxPoint x="590" y="231.02857142857135" as="targetPoint" />
            <Array as="points">
              <mxPoint x="390" y="230" />
              <mxPoint x="390" y="230" />
            </Array>
          </mxGeometry>
        </mxCell>
        <mxCell id="Z36fV5GY94czJx9EPfyB-17" value="" style="html=1;verticalAlign=bottom;endArrow=open;dashed=1;endSize=8;curved=0;rounded=0;exitX=0;exitY=1;exitDx=0;exitDy=-5;exitPerimeter=0;" parent="1" source="Z36fV5GY94czJx9EPfyB-12" edge="1" target="Z36fV5GY94czJx9EPfyB-10">
          <mxGeometry relative="1" as="geometry">
            <mxPoint x="-12.175982905982892" y="350" as="sourcePoint" />
            <mxPoint x="-264.9964957264957" y="350.53999999999996" as="targetPoint" />
          </mxGeometry>
        </mxCell>
        <mxCell id="Z36fV5GY94czJx9EPfyB-18" value="&lt;div&gt;events/{event_id}/sections?withPriceRange=true&lt;/div&gt;&lt;div&gt;return SectionWithPriceRangeResource[]&lt;/div&gt;" style="endArrow=block;endFill=1;html=1;edgeStyle=orthogonalEdgeStyle;align=left;verticalAlign=top;rounded=0;fontSize=10;" parent="1" target="Z36fV5GY94czJx9EPfyB-10" edge="1">
          <mxGeometry x="-1" relative="1" as="geometry">
            <mxPoint x="-520" y="231" as="sourcePoint" />
            <mxPoint x="-325" y="229.73000000000002" as="targetPoint" />
            <Array as="points">
              <mxPoint x="-400" y="231" />
              <mxPoint x="-400" y="231" />
            </Array>
          </mxGeometry>
        </mxCell>
        <mxCell id="Z36fV5GY94czJx9EPfyB-24" value="" style="html=1;verticalAlign=bottom;endArrow=open;dashed=1;endSize=8;curved=0;rounded=0;exitX=0;exitY=1;exitDx=0;exitDy=-5;exitPerimeter=0;entryX=1;entryY=1;entryDx=0;entryDy=-5;entryPerimeter=0;" parent="1" target="Z36fV5GY94czJx9EPfyB-12" edge="1" source="Z36fV5GY94czJx9EPfyB-13">
          <mxGeometry relative="1" as="geometry">
            <mxPoint x="235" y="340" as="sourcePoint" />
            <mxPoint x="5" y="340" as="targetPoint" />
          </mxGeometry>
        </mxCell>
        <mxCell id="Z36fV5GY94czJx9EPfyB-22" value="" style="html=1;verticalAlign=bottom;endArrow=open;dashed=1;endSize=8;curved=0;rounded=0;exitX=0;exitY=1;exitDx=0;exitDy=-5;exitPerimeter=0;" parent="1" edge="1" target="23khw75I1qNBK4fEZWJX-38" source="Z36fV5GY94czJx9EPfyB-10">
          <mxGeometry relative="1" as="geometry">
            <mxPoint x="-290" y="628" as="sourcePoint" />
            <mxPoint x="-535" y="628" as="targetPoint" />
            <Array as="points" />
          </mxGeometry>
        </mxCell>
        <mxCell id="HJcxqOJo00fccfhUoreV-3" value="" style="endArrow=block;endFill=1;html=1;edgeStyle=orthogonalEdgeStyle;align=left;verticalAlign=top;rounded=0;fontSize=10;" edge="1" parent="1" source="Z36fV5GY94czJx9EPfyB-13" target="HJcxqOJo00fccfhUoreV-5">
          <mxGeometry x="-1" relative="1" as="geometry">
            <mxPoint x="245" y="289.49" as="sourcePoint" />
            <mxPoint x="590" y="290.51857142857136" as="targetPoint" />
            <Array as="points">
              <mxPoint x="970" y="300" />
              <mxPoint x="970" y="300" />
            </Array>
          </mxGeometry>
        </mxCell>
        <mxCell id="HJcxqOJo00fccfhUoreV-7" value="" style="html=1;verticalAlign=bottom;endArrow=open;dashed=1;endSize=8;curved=0;rounded=0;exitX=0;exitY=1;exitDx=0;exitDy=-5;exitPerimeter=0;" edge="1" parent="1" source="HJcxqOJo00fccfhUoreV-5" target="Z36fV5GY94czJx9EPfyB-13">
          <mxGeometry relative="1" as="geometry">
            <mxPoint x="590" y="340" as="sourcePoint" />
            <mxPoint x="245" y="340" as="targetPoint" />
          </mxGeometry>
        </mxCell>
        <mxCell id="HJcxqOJo00fccfhUoreV-8" value="&amp;lt;(sectionId, minPrice, maxPrice)[]&amp;gt;" style="edgeLabel;html=1;align=center;verticalAlign=middle;resizable=0;points=[];fontSize=10;" vertex="1" connectable="0" parent="HJcxqOJo00fccfhUoreV-7">
          <mxGeometry x="0.0731" relative="1" as="geometry">
            <mxPoint as="offset" />
          </mxGeometry>
        </mxCell>
        <mxCell id="HJcxqOJo00fccfhUoreV-11" value="" style="html=1;points=[[0,0,0,0,5],[0,1,0,0,-5],[1,0,0,0,5],[1,1,0,0,-5]];perimeter=orthogonalPerimeter;outlineConnect=0;targetShapes=umlLifeline;portConstraint=eastwest;newEdgeStyle={&quot;curved&quot;:0,&quot;rounded&quot;:0};" vertex="1" parent="1">
          <mxGeometry x="-269" y="470" width="10" height="40" as="geometry" />
        </mxCell>
        <mxCell id="HJcxqOJo00fccfhUoreV-12" value="GenerateResource()" style="html=1;align=left;spacingLeft=2;endArrow=block;rounded=0;edgeStyle=orthogonalEdgeStyle;curved=0;rounded=0;fontSize=8;" edge="1" target="HJcxqOJo00fccfhUoreV-11" parent="1" source="Z36fV5GY94czJx9EPfyB-10">
          <mxGeometry x="-0.0005" relative="1" as="geometry">
            <mxPoint x="-260" y="450" as="sourcePoint" />
            <Array as="points">
              <mxPoint x="-230" y="460" />
              <mxPoint x="-230" y="490" />
            </Array>
            <mxPoint as="offset" />
          </mxGeometry>
        </mxCell>
        <mxCell id="HJcxqOJo00fccfhUoreV-15" value="" style="endArrow=none;dashed=1;html=1;strokeWidth=1;rounded=0;strokeColor=default;entryX=0.501;entryY=1.021;entryDx=0;entryDy=0;entryPerimeter=0;" edge="1" parent="1" target="HJcxqOJo00fccfhUoreV-14">
          <mxGeometry width="50" height="50" relative="1" as="geometry">
            <mxPoint x="-270" y="760" as="sourcePoint" />
            <mxPoint x="-270" y="151" as="targetPoint" />
          </mxGeometry>
        </mxCell>
        <mxCell id="HJcxqOJo00fccfhUoreV-14" value="" style="html=1;points=[[0,0,0,0,5],[0,1,0,0,-5],[1,0,0,0,5],[1,1,0,0,-5]];perimeter=orthogonalPerimeter;outlineConnect=0;targetShapes=umlLifeline;portConstraint=eastwest;newEdgeStyle={&quot;curved&quot;:0,&quot;rounded&quot;:0};" vertex="1" parent="1">
          <mxGeometry x="-275" y="680" width="10" height="110" as="geometry" />
        </mxCell>
        <mxCell id="HJcxqOJo00fccfhUoreV-21" value="HandleRequest()&lt;div&gt;&lt;div style=&quot;font-size: 10px;&quot;&gt;&lt;div style=&quot;font-size: 10px;&quot;&gt;return: Seat[]&lt;/div&gt;&lt;/div&gt;&lt;/div&gt;" style="endArrow=block;endFill=1;html=1;edgeStyle=orthogonalEdgeStyle;align=left;verticalAlign=top;rounded=0;fontSize=10;" edge="1" parent="1" source="HJcxqOJo00fccfhUoreV-17" target="HJcxqOJo00fccfhUoreV-20">
          <mxGeometry x="-1" relative="1" as="geometry">
            <mxPoint x="5" y="680.005" as="sourcePoint" />
            <mxPoint x="534.9999999999998" y="680.005" as="targetPoint" />
            <Array as="points">
              <mxPoint x="380" y="680" />
              <mxPoint x="380" y="680" />
            </Array>
          </mxGeometry>
        </mxCell>
        <mxCell id="HJcxqOJo00fccfhUoreV-22" value="" style="html=1;points=[[0,0,0,0,5],[0,1,0,0,-5],[1,0,0,0,5],[1,1,0,0,-5]];perimeter=orthogonalPerimeter;outlineConnect=0;targetShapes=umlLifeline;portConstraint=eastwest;newEdgeStyle={&quot;curved&quot;:0,&quot;rounded&quot;:0};" vertex="1" parent="1">
          <mxGeometry x="-269" y="740" width="10" height="40" as="geometry" />
        </mxCell>
        <mxCell id="HJcxqOJo00fccfhUoreV-23" value="GenerateResource()" style="html=1;align=left;spacingLeft=2;endArrow=block;rounded=0;edgeStyle=orthogonalEdgeStyle;curved=0;rounded=0;fontSize=8;" edge="1" parent="1" target="HJcxqOJo00fccfhUoreV-22">
          <mxGeometry x="-0.0005" relative="1" as="geometry">
            <mxPoint x="-265" y="730" as="sourcePoint" />
            <Array as="points">
              <mxPoint x="-230" y="730" />
              <mxPoint x="-230" y="760" />
            </Array>
            <mxPoint as="offset" />
          </mxGeometry>
        </mxCell>
        <mxCell id="HJcxqOJo00fccfhUoreV-27" value="" style="html=1;verticalAlign=bottom;endArrow=open;dashed=1;endSize=8;curved=0;rounded=0;exitX=0;exitY=1;exitDx=0;exitDy=-5;exitPerimeter=0;entryX=1;entryY=1;entryDx=0;entryDy=-5;entryPerimeter=0;" edge="1" parent="1" source="HJcxqOJo00fccfhUoreV-24" target="HJcxqOJo00fccfhUoreV-20">
          <mxGeometry relative="1" as="geometry">
            <mxPoint x="975" y="710" as="sourcePoint" />
            <mxPoint x="370" y="710" as="targetPoint" />
          </mxGeometry>
        </mxCell>
        <mxCell id="HJcxqOJo00fccfhUoreV-28" value="&amp;lt;seat[]&amp;gt;" style="edgeLabel;html=1;align=center;verticalAlign=middle;resizable=0;points=[];fontSize=10;" vertex="1" connectable="0" parent="HJcxqOJo00fccfhUoreV-27">
          <mxGeometry x="0.0731" relative="1" as="geometry">
            <mxPoint as="offset" />
          </mxGeometry>
        </mxCell>
        <mxCell id="HJcxqOJo00fccfhUoreV-29" value="" style="html=1;verticalAlign=bottom;endArrow=open;dashed=1;endSize=8;curved=0;rounded=0;exitX=0;exitY=1;exitDx=0;exitDy=-5;exitPerimeter=0;entryX=1;entryY=1;entryDx=0;entryDy=-5;entryPerimeter=0;" edge="1" parent="1" source="HJcxqOJo00fccfhUoreV-20" target="HJcxqOJo00fccfhUoreV-17">
          <mxGeometry relative="1" as="geometry">
            <mxPoint x="515" y="720" as="sourcePoint" />
            <mxPoint x="210" y="721" as="targetPoint" />
          </mxGeometry>
        </mxCell>
        <mxCell id="HJcxqOJo00fccfhUoreV-31" value="" style="html=1;verticalAlign=bottom;endArrow=open;dashed=1;endSize=8;curved=0;rounded=0;exitX=0;exitY=1;exitDx=0;exitDy=-5;exitPerimeter=0;" edge="1" parent="1" source="HJcxqOJo00fccfhUoreV-17" target="HJcxqOJo00fccfhUoreV-14">
          <mxGeometry relative="1" as="geometry">
            <mxPoint x="-10" y="720" as="sourcePoint" />
            <mxPoint x="-265" y="720.0049999999999" as="targetPoint" />
          </mxGeometry>
        </mxCell>
        <mxCell id="HJcxqOJo00fccfhUoreV-34" value="" style="group" vertex="1" connectable="0" parent="1">
          <mxGeometry x="-190" y="80" width="90" height="1400" as="geometry" />
        </mxCell>
        <mxCell id="HJcxqOJo00fccfhUoreV-35" value="&lt;div&gt;Cart&lt;/div&gt;&lt;div&gt;Endpoints&lt;/div&gt;" style="shape=umlBoundary;whiteSpace=wrap;html=1;" vertex="1" parent="HJcxqOJo00fccfhUoreV-34">
          <mxGeometry x="-10" width="100" height="83.01" as="geometry" />
        </mxCell>
        <mxCell id="HJcxqOJo00fccfhUoreV-36" value="" style="endArrow=none;dashed=1;html=1;strokeWidth=1;rounded=0;strokeColor=default;entryX=0.501;entryY=1.021;entryDx=0;entryDy=0;entryPerimeter=0;" edge="1" parent="HJcxqOJo00fccfhUoreV-34" target="HJcxqOJo00fccfhUoreV-35">
          <mxGeometry width="50" height="50" relative="1" as="geometry">
            <mxPoint x="40" y="1800" as="sourcePoint" />
            <mxPoint x="42.5" y="145.25045134818288" as="targetPoint" />
          </mxGeometry>
        </mxCell>
        <mxCell id="HJcxqOJo00fccfhUoreV-42" value="" style="html=1;points=[[0,0,0,0,5],[0,1,0,0,-5],[1,0,0,0,5],[1,1,0,0,-5]];perimeter=orthogonalPerimeter;outlineConnect=0;targetShapes=umlLifeline;portConstraint=eastwest;newEdgeStyle={&quot;curved&quot;:0,&quot;rounded&quot;:0};" vertex="1" parent="HJcxqOJo00fccfhUoreV-34">
          <mxGeometry x="35" y="740" width="10" height="330" as="geometry" />
        </mxCell>
        <mxCell id="HJcxqOJo00fccfhUoreV-72" value="" style="html=1;points=[[0,0,0,0,5],[0,1,0,0,-5],[1,0,0,0,5],[1,1,0,0,-5]];perimeter=orthogonalPerimeter;outlineConnect=0;targetShapes=umlLifeline;portConstraint=eastwest;newEdgeStyle={&quot;curved&quot;:0,&quot;rounded&quot;:0};" vertex="1" parent="HJcxqOJo00fccfhUoreV-34">
          <mxGeometry x="41" y="1000" width="10" height="40" as="geometry" />
        </mxCell>
        <mxCell id="HJcxqOJo00fccfhUoreV-73" value="GenerateResource()" style="html=1;align=left;spacingLeft=2;endArrow=block;rounded=0;edgeStyle=orthogonalEdgeStyle;curved=0;rounded=0;fontSize=8;" edge="1" parent="HJcxqOJo00fccfhUoreV-34" target="HJcxqOJo00fccfhUoreV-72">
          <mxGeometry x="-0.0005" relative="1" as="geometry">
            <mxPoint x="45" y="990" as="sourcePoint" />
            <Array as="points">
              <mxPoint x="80" y="990" />
              <mxPoint x="80" y="1020" />
            </Array>
            <mxPoint as="offset" />
          </mxGeometry>
        </mxCell>
        <mxCell id="HJcxqOJo00fccfhUoreV-76" value="" style="html=1;points=[[0,0,0,0,5],[0,1,0,0,-5],[1,0,0,0,5],[1,1,0,0,-5]];perimeter=orthogonalPerimeter;outlineConnect=0;targetShapes=umlLifeline;portConstraint=eastwest;newEdgeStyle={&quot;curved&quot;:0,&quot;rounded&quot;:0};" vertex="1" parent="HJcxqOJo00fccfhUoreV-34">
          <mxGeometry x="35" y="1110" width="10" height="290" as="geometry" />
        </mxCell>
        <mxCell id="HJcxqOJo00fccfhUoreV-106" value="" style="html=1;points=[[0,0,0,0,5],[0,1,0,0,-5],[1,0,0,0,5],[1,1,0,0,-5]];perimeter=orthogonalPerimeter;outlineConnect=0;targetShapes=umlLifeline;portConstraint=eastwest;newEdgeStyle={&quot;curved&quot;:0,&quot;rounded&quot;:0};" vertex="1" parent="HJcxqOJo00fccfhUoreV-34">
          <mxGeometry x="41" y="1340" width="10" height="40" as="geometry" />
        </mxCell>
        <mxCell id="HJcxqOJo00fccfhUoreV-107" value="GenerateResource()" style="html=1;align=left;spacingLeft=2;endArrow=block;rounded=0;edgeStyle=orthogonalEdgeStyle;curved=0;rounded=0;fontSize=8;" edge="1" parent="HJcxqOJo00fccfhUoreV-34" target="HJcxqOJo00fccfhUoreV-106">
          <mxGeometry x="-0.0005" relative="1" as="geometry">
            <mxPoint x="45" y="1330" as="sourcePoint" />
            <Array as="points">
              <mxPoint x="80" y="1330" />
              <mxPoint x="80" y="1360" />
            </Array>
            <mxPoint as="offset" />
          </mxGeometry>
        </mxCell>
        <mxCell id="HJcxqOJo00fccfhUoreV-16" value="&lt;div&gt;events/{event_id}/sections/{section_id}/seats&lt;/div&gt;&lt;div&gt;return SeatResource[]&lt;/div&gt;" style="endArrow=block;endFill=1;html=1;edgeStyle=orthogonalEdgeStyle;align=left;verticalAlign=top;rounded=0;fontSize=10;" edge="1" parent="1">
          <mxGeometry x="-1" relative="1" as="geometry">
            <mxPoint x="-520" y="680" as="sourcePoint" />
            <mxPoint x="-275" y="680" as="targetPoint" />
            <Array as="points">
              <mxPoint x="-400" y="680" />
              <mxPoint x="-400" y="680" />
            </Array>
          </mxGeometry>
        </mxCell>
        <mxCell id="HJcxqOJo00fccfhUoreV-18" value="Send(ListSeats)&lt;div&gt;&lt;div style=&quot;font-size: 10px;&quot;&gt;return: Seat[]&lt;/div&gt;&lt;/div&gt;" style="endArrow=block;endFill=1;html=1;edgeStyle=orthogonalEdgeStyle;align=left;verticalAlign=top;rounded=0;fontSize=10;" edge="1" parent="1" target="HJcxqOJo00fccfhUoreV-17">
          <mxGeometry x="-1" relative="1" as="geometry">
            <mxPoint x="-265" y="679.9985057471265" as="sourcePoint" />
            <mxPoint x="-5" y="679.9985057471265" as="targetPoint" />
            <Array as="points">
              <mxPoint x="-265" y="681" />
            </Array>
          </mxGeometry>
        </mxCell>
        <mxCell id="HJcxqOJo00fccfhUoreV-32" value="" style="html=1;verticalAlign=bottom;endArrow=open;dashed=1;endSize=8;curved=0;rounded=0;" edge="1" parent="1" source="HJcxqOJo00fccfhUoreV-14">
          <mxGeometry relative="1" as="geometry">
            <mxPoint x="-275" y="790" as="sourcePoint" />
            <mxPoint x="-520" y="790" as="targetPoint" />
            <Array as="points" />
          </mxGeometry>
        </mxCell>
        <mxCell id="HJcxqOJo00fccfhUoreV-41" value="GET" style="text;html=1;align=left;verticalAlign=middle;resizable=0;points=[];autosize=1;strokeColor=none;fillColor=none;spacing=1;fontSize=11;" vertex="1" parent="1">
          <mxGeometry x="-520" y="214" width="40" height="20" as="geometry" />
        </mxCell>
        <mxCell id="HJcxqOJo00fccfhUoreV-47" value="Send(CartItemAdd)&lt;div&gt;return: Cart&lt;/div&gt;" style="endArrow=block;endFill=1;html=1;edgeStyle=orthogonalEdgeStyle;align=left;verticalAlign=top;rounded=0;fontSize=10;" edge="1" parent="1" source="HJcxqOJo00fccfhUoreV-42" target="HJcxqOJo00fccfhUoreV-45">
          <mxGeometry x="-1" relative="1" as="geometry">
            <mxPoint x="-135" y="820.24" as="sourcePoint" />
            <mxPoint x="0.2899999999999636" y="819.9999400000002" as="targetPoint" />
            <Array as="points">
              <mxPoint x="-110" y="820" />
              <mxPoint x="-110" y="820" />
            </Array>
          </mxGeometry>
        </mxCell>
        <mxCell id="HJcxqOJo00fccfhUoreV-50" value="HandleRequest()&lt;div&gt;&lt;div style=&quot;font-size: 10px;&quot;&gt;&lt;div style=&quot;font-size: 10px;&quot;&gt;return: Cart&lt;/div&gt;&lt;/div&gt;&lt;/div&gt;" style="endArrow=block;endFill=1;html=1;edgeStyle=orthogonalEdgeStyle;align=left;verticalAlign=top;rounded=0;fontSize=10;" edge="1" parent="1" source="HJcxqOJo00fccfhUoreV-45" target="HJcxqOJo00fccfhUoreV-49">
          <mxGeometry x="-1" relative="1" as="geometry">
            <mxPoint x="15" y="820.005" as="sourcePoint" />
            <mxPoint x="435" y="820" as="targetPoint" />
            <Array as="points">
              <mxPoint x="400" y="821" />
              <mxPoint x="400" y="821" />
            </Array>
          </mxGeometry>
        </mxCell>
        <mxCell id="HJcxqOJo00fccfhUoreV-52" value="" style="endArrow=block;endFill=1;html=1;edgeStyle=orthogonalEdgeStyle;align=left;verticalAlign=top;rounded=0;fontSize=10;" edge="1" parent="1" source="HJcxqOJo00fccfhUoreV-49" target="HJcxqOJo00fccfhUoreV-51">
          <mxGeometry x="-1" relative="1" as="geometry">
            <mxPoint x="600" y="820.48" as="sourcePoint" />
            <mxPoint x="1015" y="820" as="targetPoint" />
            <Array as="points">
              <mxPoint x="940" y="820" />
              <mxPoint x="940" y="820" />
            </Array>
          </mxGeometry>
        </mxCell>
        <mxCell id="HJcxqOJo00fccfhUoreV-54" value="" style="html=1;verticalAlign=bottom;endArrow=open;dashed=1;endSize=8;curved=0;rounded=0;exitX=0;exitY=1;exitDx=0;exitDy=-5;exitPerimeter=0;" edge="1" parent="1" source="HJcxqOJo00fccfhUoreV-51" target="HJcxqOJo00fccfhUoreV-49">
          <mxGeometry relative="1" as="geometry">
            <mxPoint x="835" y="780" as="sourcePoint" />
            <mxPoint x="420" y="781" as="targetPoint" />
          </mxGeometry>
        </mxCell>
        <mxCell id="HJcxqOJo00fccfhUoreV-55" value="&amp;lt;exists&amp;gt;" style="edgeLabel;html=1;align=center;verticalAlign=middle;resizable=0;points=[];fontSize=10;" vertex="1" connectable="0" parent="HJcxqOJo00fccfhUoreV-54">
          <mxGeometry x="0.0731" relative="1" as="geometry">
            <mxPoint as="offset" />
          </mxGeometry>
        </mxCell>
        <mxCell id="HJcxqOJo00fccfhUoreV-58" value="" style="endArrow=block;endFill=1;html=1;edgeStyle=orthogonalEdgeStyle;align=left;verticalAlign=top;rounded=0;fontSize=10;" edge="1" parent="1" source="HJcxqOJo00fccfhUoreV-49" target="HJcxqOJo00fccfhUoreV-57">
          <mxGeometry x="-1" relative="1" as="geometry">
            <mxPoint x="595" y="830" as="sourcePoint" />
            <mxPoint x="860" y="830" as="targetPoint" />
            <Array as="points">
              <mxPoint x="790" y="930" />
              <mxPoint x="790" y="930" />
            </Array>
          </mxGeometry>
        </mxCell>
        <mxCell id="HJcxqOJo00fccfhUoreV-37" value="" style="html=1;points=[[0,0,0,0,5],[0,1,0,0,-5],[1,0,0,0,5],[1,1,0,0,-5]];perimeter=orthogonalPerimeter;outlineConnect=0;targetShapes=umlLifeline;portConstraint=eastwest;newEdgeStyle={&quot;curved&quot;:0,&quot;rounded&quot;:0};" vertex="1" parent="1">
          <mxGeometry x="-519.5" y="590.01" width="10" height="40" as="geometry" />
        </mxCell>
        <mxCell id="HJcxqOJo00fccfhUoreV-38" value="Choose section with lowest min price" style="html=1;align=left;spacingLeft=2;endArrow=block;rounded=0;edgeStyle=orthogonalEdgeStyle;curved=0;rounded=0;fontSize=8;" edge="1" parent="1" target="HJcxqOJo00fccfhUoreV-37">
          <mxGeometry x="-0.0005" relative="1" as="geometry">
            <mxPoint x="-519.4000000000001" y="580" as="sourcePoint" />
            <Array as="points">
              <mxPoint x="-480.5" y="580.01" />
              <mxPoint x="-480.5" y="610.01" />
            </Array>
            <mxPoint as="offset" />
          </mxGeometry>
        </mxCell>
        <mxCell id="HJcxqOJo00fccfhUoreV-39" value="&lt;div&gt;orders/carts/{cart_id}&lt;/div&gt;&lt;div&gt;{&lt;/div&gt;&lt;div&gt;&amp;nbsp; eventId, seatId, priceId&lt;/div&gt;&lt;div&gt;}&lt;/div&gt;&lt;div&gt;return CartResource&lt;/div&gt;" style="endArrow=block;endFill=1;html=1;edgeStyle=orthogonalEdgeStyle;align=left;verticalAlign=top;rounded=0;fontSize=10;" edge="1" parent="1" target="HJcxqOJo00fccfhUoreV-42">
          <mxGeometry x="-1" relative="1" as="geometry">
            <mxPoint x="-520" y="820" as="sourcePoint" />
            <mxPoint x="-275" y="820" as="targetPoint" />
            <Array as="points">
              <mxPoint x="-340" y="820" />
              <mxPoint x="-340" y="820" />
            </Array>
            <mxPoint as="offset" />
          </mxGeometry>
        </mxCell>
        <mxCell id="HJcxqOJo00fccfhUoreV-40" value="GET" style="text;html=1;align=left;verticalAlign=middle;resizable=0;points=[];autosize=1;strokeColor=none;fillColor=none;spacing=1;fontSize=11;" vertex="1" parent="1">
          <mxGeometry x="-520" y="660" width="40" height="20" as="geometry" />
        </mxCell>
        <mxCell id="HJcxqOJo00fccfhUoreV-25" value="" style="endArrow=block;endFill=1;html=1;edgeStyle=orthogonalEdgeStyle;align=left;verticalAlign=top;rounded=0;fontSize=10;" edge="1" parent="1" source="HJcxqOJo00fccfhUoreV-20" target="HJcxqOJo00fccfhUoreV-24">
          <mxGeometry x="-1" relative="1" as="geometry">
            <mxPoint x="435" y="680.48" as="sourcePoint" />
            <mxPoint x="850" y="680" as="targetPoint" />
            <Array as="points">
              <mxPoint x="1080" y="680" />
              <mxPoint x="1080" y="680" />
            </Array>
          </mxGeometry>
        </mxCell>
        <mxCell id="HJcxqOJo00fccfhUoreV-43" value="POST" style="text;html=1;align=left;verticalAlign=middle;resizable=0;points=[];autosize=1;strokeColor=none;fillColor=none;fontSize=10;spacing=1;" vertex="1" parent="1">
          <mxGeometry x="-520" y="800" width="50" height="20" as="geometry" />
        </mxCell>
        <mxCell id="HJcxqOJo00fccfhUoreV-44" value="opt" style="shape=umlFrame;whiteSpace=wrap;html=1;pointerEvents=0;textOpacity=50;" vertex="1" parent="1">
          <mxGeometry x="640" y="870" width="760" height="100" as="geometry" />
        </mxCell>
        <mxCell id="HJcxqOJo00fccfhUoreV-62" value="" style="html=1;verticalAlign=bottom;endArrow=open;dashed=1;endSize=8;curved=0;rounded=0;exitX=0.005;exitY=1.002;exitDx=0;exitDy=0;exitPerimeter=0;" edge="1" parent="1" source="HJcxqOJo00fccfhUoreV-57" target="HJcxqOJo00fccfhUoreV-49">
          <mxGeometry relative="1" as="geometry">
            <mxPoint x="850" y="960" as="sourcePoint" />
            <mxPoint x="585" y="960" as="targetPoint" />
          </mxGeometry>
        </mxCell>
        <mxCell id="HJcxqOJo00fccfhUoreV-63" value="&amp;lt;updatedCount&amp;gt;" style="edgeLabel;html=1;align=center;verticalAlign=middle;resizable=0;points=[];fontSize=10;" vertex="1" connectable="0" parent="HJcxqOJo00fccfhUoreV-62">
          <mxGeometry x="0.0731" relative="1" as="geometry">
            <mxPoint as="offset" />
          </mxGeometry>
        </mxCell>
        <mxCell id="HJcxqOJo00fccfhUoreV-66" value="" style="endArrow=block;endFill=1;html=1;edgeStyle=orthogonalEdgeStyle;align=left;verticalAlign=top;rounded=0;fontSize=10;entryX=-0.047;entryY=0;entryDx=0;entryDy=0;entryPerimeter=0;" edge="1" parent="1" source="HJcxqOJo00fccfhUoreV-49" target="HJcxqOJo00fccfhUoreV-65">
          <mxGeometry x="-1" relative="1" as="geometry">
            <mxPoint x="595" y="940" as="sourcePoint" />
            <mxPoint x="860" y="940" as="targetPoint" />
            <Array as="points">
              <mxPoint x="720" y="990" />
              <mxPoint x="720" y="990" />
            </Array>
          </mxGeometry>
        </mxCell>
        <mxCell id="HJcxqOJo00fccfhUoreV-68" value="" style="html=1;verticalAlign=bottom;endArrow=open;dashed=1;endSize=8;curved=0;rounded=0;entryX=1.031;entryY=0.868;entryDx=0;entryDy=0;entryPerimeter=0;" edge="1" parent="1" source="HJcxqOJo00fccfhUoreV-65" target="HJcxqOJo00fccfhUoreV-49">
          <mxGeometry relative="1" as="geometry">
            <mxPoint x="850" y="1019" as="sourcePoint" />
            <mxPoint x="584.9999999999998" y="1019" as="targetPoint" />
          </mxGeometry>
        </mxCell>
        <mxCell id="HJcxqOJo00fccfhUoreV-69" value="&amp;lt;updatedCount&amp;gt;" style="edgeLabel;html=1;align=center;verticalAlign=middle;resizable=0;points=[];fontSize=10;" vertex="1" connectable="0" parent="HJcxqOJo00fccfhUoreV-68">
          <mxGeometry x="0.0731" relative="1" as="geometry">
            <mxPoint as="offset" />
          </mxGeometry>
        </mxCell>
        <mxCell id="HJcxqOJo00fccfhUoreV-70" value="" style="html=1;verticalAlign=bottom;endArrow=open;dashed=1;endSize=8;curved=0;rounded=0;exitX=0;exitY=1;exitDx=0;exitDy=-5;exitPerimeter=0;entryX=1;entryY=1;entryDx=0;entryDy=-5;entryPerimeter=0;" edge="1" parent="1" source="HJcxqOJo00fccfhUoreV-49" target="HJcxqOJo00fccfhUoreV-45">
          <mxGeometry relative="1" as="geometry">
            <mxPoint x="435" y="725" as="sourcePoint" />
            <mxPoint x="15" y="725" as="targetPoint" />
          </mxGeometry>
        </mxCell>
        <mxCell id="HJcxqOJo00fccfhUoreV-71" value="" style="html=1;verticalAlign=bottom;endArrow=open;dashed=1;endSize=8;curved=0;rounded=0;" edge="1" parent="1" source="HJcxqOJo00fccfhUoreV-45" target="HJcxqOJo00fccfhUoreV-42">
          <mxGeometry relative="1" as="geometry">
            <mxPoint x="70" y="950" as="sourcePoint" />
            <mxPoint x="-190" y="950" as="targetPoint" />
            <Array as="points">
              <mxPoint x="-70" y="1050" />
            </Array>
          </mxGeometry>
        </mxCell>
        <mxCell id="HJcxqOJo00fccfhUoreV-74" value="" style="html=1;verticalAlign=bottom;endArrow=open;dashed=1;endSize=8;curved=0;rounded=0;" edge="1" parent="1" source="HJcxqOJo00fccfhUoreV-42" target="23khw75I1qNBK4fEZWJX-38">
          <mxGeometry relative="1" as="geometry">
            <mxPoint x="-259" y="1090" as="sourcePoint" />
            <mxPoint x="-504" y="1090" as="targetPoint" />
            <Array as="points">
              <mxPoint x="-340" y="1150" />
            </Array>
          </mxGeometry>
        </mxCell>
        <mxCell id="HJcxqOJo00fccfhUoreV-75" value="&lt;div&gt;orders/carts/{cart_id}/book&lt;/div&gt;&lt;div&gt;return PaymentResource&lt;/div&gt;" style="endArrow=block;endFill=1;html=1;edgeStyle=orthogonalEdgeStyle;align=left;verticalAlign=top;rounded=0;fontSize=10;" edge="1" parent="1" source="23khw75I1qNBK4fEZWJX-38" target="HJcxqOJo00fccfhUoreV-76">
          <mxGeometry x="-1" relative="1" as="geometry">
            <mxPoint x="-440" y="1190" as="sourcePoint" />
            <mxPoint x="-200" y="1190" as="targetPoint" />
            <Array as="points">
              <mxPoint x="-220" y="1190" />
              <mxPoint x="-220" y="1190" />
            </Array>
            <mxPoint as="offset" />
          </mxGeometry>
        </mxCell>
        <mxCell id="HJcxqOJo00fccfhUoreV-79" value="PUT" style="text;html=1;align=left;verticalAlign=middle;resizable=0;points=[];autosize=1;strokeColor=none;fillColor=none;fontSize=10;spacing=1;" vertex="1" parent="1">
          <mxGeometry x="-520" y="1170" width="40" height="20" as="geometry" />
        </mxCell>
        <mxCell id="HJcxqOJo00fccfhUoreV-81" value="Send(BookCartItems)&lt;div&gt;return: PaymentId&lt;/div&gt;" style="endArrow=block;endFill=1;html=1;edgeStyle=orthogonalEdgeStyle;align=left;verticalAlign=top;rounded=0;fontSize=10;" edge="1" parent="1" source="HJcxqOJo00fccfhUoreV-76" target="HJcxqOJo00fccfhUoreV-80">
          <mxGeometry x="-1" relative="1" as="geometry">
            <mxPoint x="-145" y="1190" as="sourcePoint" />
            <mxPoint x="-5" y="1190" as="targetPoint" />
            <Array as="points">
              <mxPoint x="-110" y="1190" />
              <mxPoint x="-110" y="1190" />
            </Array>
          </mxGeometry>
        </mxCell>
        <mxCell id="HJcxqOJo00fccfhUoreV-84" value="HandleRequest()&lt;div&gt;&lt;div style=&quot;font-size: 10px;&quot;&gt;&lt;div style=&quot;font-size: 10px;&quot;&gt;return: PaymentId&lt;/div&gt;&lt;/div&gt;&lt;/div&gt;" style="endArrow=block;endFill=1;html=1;edgeStyle=orthogonalEdgeStyle;align=left;verticalAlign=top;rounded=0;fontSize=10;" edge="1" parent="1" source="HJcxqOJo00fccfhUoreV-80" target="HJcxqOJo00fccfhUoreV-86">
          <mxGeometry x="-1" relative="1" as="geometry">
            <mxPoint x="50" y="1200.005" as="sourcePoint" />
            <mxPoint x="870" y="1190" as="targetPoint" />
            <Array as="points">
              <mxPoint x="460" y="1190" />
              <mxPoint x="460" y="1190" />
            </Array>
          </mxGeometry>
        </mxCell>
        <mxCell id="HJcxqOJo00fccfhUoreV-88" value="" style="endArrow=block;endFill=1;html=1;edgeStyle=orthogonalEdgeStyle;align=left;verticalAlign=top;rounded=0;fontSize=10;" edge="1" parent="1" source="HJcxqOJo00fccfhUoreV-86" target="HJcxqOJo00fccfhUoreV-87">
          <mxGeometry x="-1" relative="1" as="geometry">
            <mxPoint x="655" y="1160" as="sourcePoint" />
            <mxPoint x="1240" y="1160" as="targetPoint" />
            <Array as="points">
              <mxPoint x="990" y="1260" />
              <mxPoint x="990" y="1260" />
            </Array>
          </mxGeometry>
        </mxCell>
        <mxCell id="HJcxqOJo00fccfhUoreV-94" value="" style="html=1;verticalAlign=bottom;endArrow=open;dashed=1;endSize=8;curved=0;rounded=0;" edge="1" parent="1" source="HJcxqOJo00fccfhUoreV-87" target="HJcxqOJo00fccfhUoreV-86">
          <mxGeometry relative="1" as="geometry">
            <mxPoint x="1147.5" y="1230" as="sourcePoint" />
            <mxPoint x="562.5" y="1230" as="targetPoint" />
            <Array as="points">
              <mxPoint x="960" y="1300" />
            </Array>
          </mxGeometry>
        </mxCell>
        <mxCell id="HJcxqOJo00fccfhUoreV-95" value="&amp;lt;updatedCount&amp;gt;" style="edgeLabel;html=1;align=center;verticalAlign=middle;resizable=0;points=[];fontSize=10;" vertex="1" connectable="0" parent="HJcxqOJo00fccfhUoreV-94">
          <mxGeometry x="0.0731" relative="1" as="geometry">
            <mxPoint as="offset" />
          </mxGeometry>
        </mxCell>
        <mxCell id="HJcxqOJo00fccfhUoreV-96" value="" style="group" vertex="1" connectable="0" parent="1">
          <mxGeometry x="740" y="1310" width="330" height="20" as="geometry" />
        </mxCell>
        <mxCell id="HJcxqOJo00fccfhUoreV-98" value="" style="endArrow=block;endFill=1;html=1;edgeStyle=orthogonalEdgeStyle;align=left;verticalAlign=top;rounded=0;fontSize=10;" edge="1" parent="1" source="HJcxqOJo00fccfhUoreV-86" target="HJcxqOJo00fccfhUoreV-97">
          <mxGeometry x="-1" relative="1" as="geometry">
            <mxPoint x="740" y="1190" as="sourcePoint" />
            <mxPoint x="1170" y="1190" as="targetPoint" />
            <Array as="points">
              <mxPoint x="1060" y="1190" />
              <mxPoint x="1060" y="1190" />
            </Array>
          </mxGeometry>
        </mxCell>
        <mxCell id="HJcxqOJo00fccfhUoreV-100" value="" style="html=1;verticalAlign=bottom;endArrow=open;dashed=1;endSize=8;curved=0;rounded=0;" edge="1" parent="1" source="HJcxqOJo00fccfhUoreV-97" target="HJcxqOJo00fccfhUoreV-86">
          <mxGeometry relative="1" as="geometry">
            <mxPoint x="1170" y="1230" as="sourcePoint" />
            <mxPoint x="880" y="1230" as="targetPoint" />
            <Array as="points">
              <mxPoint x="960" y="1230" />
            </Array>
          </mxGeometry>
        </mxCell>
        <mxCell id="HJcxqOJo00fccfhUoreV-101" value="&amp;lt;seatId[]&amp;gt;" style="edgeLabel;html=1;align=center;verticalAlign=middle;resizable=0;points=[];fontSize=10;" vertex="1" connectable="0" parent="HJcxqOJo00fccfhUoreV-100">
          <mxGeometry x="0.0731" relative="1" as="geometry">
            <mxPoint as="offset" />
          </mxGeometry>
        </mxCell>
        <mxCell id="HJcxqOJo00fccfhUoreV-102" value="" style="html=1;verticalAlign=bottom;endArrow=open;dashed=1;endSize=8;curved=0;rounded=0;" edge="1" parent="1" source="HJcxqOJo00fccfhUoreV-92" target="HJcxqOJo00fccfhUoreV-86">
          <mxGeometry relative="1" as="geometry">
            <mxPoint x="1170" y="1370" as="sourcePoint" />
            <mxPoint x="740" y="1371" as="targetPoint" />
            <Array as="points">
              <mxPoint x="960" y="1380" />
            </Array>
          </mxGeometry>
        </mxCell>
        <mxCell id="HJcxqOJo00fccfhUoreV-103" value="&amp;lt;paymentId&amp;gt;" style="edgeLabel;html=1;align=center;verticalAlign=middle;resizable=0;points=[];fontSize=10;" vertex="1" connectable="0" parent="HJcxqOJo00fccfhUoreV-102">
          <mxGeometry x="0.0731" relative="1" as="geometry">
            <mxPoint as="offset" />
          </mxGeometry>
        </mxCell>
        <mxCell id="HJcxqOJo00fccfhUoreV-104" value="" style="html=1;verticalAlign=bottom;endArrow=open;dashed=1;endSize=8;curved=0;rounded=0;" edge="1" parent="1" source="HJcxqOJo00fccfhUoreV-86" target="HJcxqOJo00fccfhUoreV-80">
          <mxGeometry relative="1" as="geometry">
            <mxPoint x="630" y="1340" as="sourcePoint" />
            <mxPoint x="60" y="1341" as="targetPoint" />
            <Array as="points">
              <mxPoint x="380" y="1390" />
            </Array>
          </mxGeometry>
        </mxCell>
        <mxCell id="HJcxqOJo00fccfhUoreV-105" value="" style="html=1;verticalAlign=bottom;endArrow=open;dashed=1;endSize=8;curved=0;rounded=0;exitX=-0.138;exitY=0.998;exitDx=0;exitDy=0;exitPerimeter=0;" edge="1" parent="1" source="HJcxqOJo00fccfhUoreV-80" target="HJcxqOJo00fccfhUoreV-76">
          <mxGeometry relative="1" as="geometry">
            <mxPoint x="40" y="1440" as="sourcePoint" />
            <mxPoint x="-100" y="1440" as="targetPoint" />
            <Array as="points">
              <mxPoint x="-90" y="1390" />
            </Array>
          </mxGeometry>
        </mxCell>
        <mxCell id="HJcxqOJo00fccfhUoreV-108" value="" style="html=1;verticalAlign=bottom;endArrow=open;dashed=1;endSize=8;curved=0;rounded=0;exitX=-0.043;exitY=0.997;exitDx=0;exitDy=0;exitPerimeter=0;" edge="1" parent="1" source="HJcxqOJo00fccfhUoreV-76" target="23khw75I1qNBK4fEZWJX-38">
          <mxGeometry relative="1" as="geometry">
            <mxPoint x="-82.5" y="1400" as="sourcePoint" />
            <mxPoint x="-447.5" y="1400" as="targetPoint" />
            <Array as="points">
              <mxPoint x="-270" y="1479" />
            </Array>
          </mxGeometry>
        </mxCell>
        <mxCell id="HJcxqOJo00fccfhUoreV-109" value="" style="group" vertex="1" connectable="0" parent="1">
          <mxGeometry x="650" y="99" width="160" height="1781" as="geometry" />
        </mxCell>
        <mxCell id="HJcxqOJo00fccfhUoreV-48" value="CartItemAddHandler" style="shape=umlLifeline;perimeter=lifelinePerimeter;whiteSpace=wrap;html=1;container=1;dropTarget=0;collapsible=0;recursiveResize=0;outlineConnect=0;portConstraint=eastwest;newEdgeStyle={&quot;curved&quot;:0,&quot;rounded&quot;:0};" vertex="1" parent="HJcxqOJo00fccfhUoreV-109">
          <mxGeometry width="120" height="1781" as="geometry" />
        </mxCell>
        <mxCell id="HJcxqOJo00fccfhUoreV-49" value="" style="html=1;points=[[0,0,0,0,5],[0,1,0,0,-5],[1,0,0,0,5],[1,1,0,0,-5]];perimeter=orthogonalPerimeter;outlineConnect=0;targetShapes=umlLifeline;portConstraint=eastwest;newEdgeStyle={&quot;curved&quot;:0,&quot;rounded&quot;:0};" vertex="1" parent="HJcxqOJo00fccfhUoreV-48">
          <mxGeometry x="55" y="721" width="10" height="229" as="geometry" />
        </mxCell>
        <mxCell id="HJcxqOJo00fccfhUoreV-59" value="Create cart" style="text;html=1;align=left;verticalAlign=middle;resizable=0;points=[];autosize=1;strokeColor=none;fillColor=none;fontSize=10;spacing=1;" vertex="1" parent="HJcxqOJo00fccfhUoreV-109">
          <mxGeometry x="70" y="814" width="70" height="20" as="geometry" />
        </mxCell>
        <mxCell id="HJcxqOJo00fccfhUoreV-53" value="Get cart by guid" style="text;html=1;align=left;verticalAlign=middle;resizable=0;points=[];autosize=1;strokeColor=none;fillColor=none;fontSize=10;spacing=1;" vertex="1" parent="HJcxqOJo00fccfhUoreV-109">
          <mxGeometry x="70" y="704" width="90" height="20" as="geometry" />
        </mxCell>
        <mxCell id="HJcxqOJo00fccfhUoreV-67" value="Create cart item" style="text;html=1;align=left;verticalAlign=middle;resizable=0;points=[];autosize=1;strokeColor=none;fillColor=none;fontSize=10;spacing=1;" vertex="1" parent="HJcxqOJo00fccfhUoreV-109">
          <mxGeometry x="70" y="874" width="90" height="20" as="geometry" />
        </mxCell>
        <mxCell id="HJcxqOJo00fccfhUoreV-56" value="!exists&amp;nbsp;" style="text;html=1;align=left;verticalAlign=middle;resizable=0;points=[];autosize=1;strokeColor=none;fillColor=none;opacity=50;fontSize=9;fontColor=#A8A8A8;spacing=2;" vertex="1" parent="HJcxqOJo00fccfhUoreV-109">
          <mxGeometry x="55" y="794" width="50" height="20" as="geometry" />
        </mxCell>
        <mxCell id="HJcxqOJo00fccfhUoreV-110" value="" style="group" vertex="1" connectable="0" parent="1">
          <mxGeometry x="510" y="100.00000000000001" width="216" height="1779.99" as="geometry" />
        </mxCell>
        <mxCell id="HJcxqOJo00fccfhUoreV-19" value="ListSeatsHandler" style="shape=umlLifeline;perimeter=lifelinePerimeter;whiteSpace=wrap;html=1;container=1;dropTarget=0;collapsible=0;recursiveResize=0;outlineConnect=0;portConstraint=eastwest;newEdgeStyle={&quot;curved&quot;:0,&quot;rounded&quot;:0};fontSize=10;" vertex="1" parent="HJcxqOJo00fccfhUoreV-110">
          <mxGeometry width="100" height="1779.99" as="geometry" />
        </mxCell>
        <mxCell id="HJcxqOJo00fccfhUoreV-20" value="" style="html=1;points=[[0,0,0,0,5],[0,1,0,0,-5],[1,0,0,0,5],[1,1,0,0,-5]];perimeter=orthogonalPerimeter;outlineConnect=0;targetShapes=umlLifeline;portConstraint=eastwest;newEdgeStyle={&quot;curved&quot;:0,&quot;rounded&quot;:0};" vertex="1" parent="HJcxqOJo00fccfhUoreV-19">
          <mxGeometry x="45" y="579.99" width="10" height="40.01" as="geometry" />
        </mxCell>
        <mxCell id="HJcxqOJo00fccfhUoreV-26" value="Get seats with status &#39;available&#39;" style="text;html=1;align=left;verticalAlign=middle;resizable=0;points=[];autosize=1;strokeColor=none;fillColor=none;fontSize=10;spacing=1;" vertex="1" parent="HJcxqOJo00fccfhUoreV-110">
          <mxGeometry x="56" y="561.98" width="160" height="20" as="geometry" />
        </mxCell>
        <mxCell id="HJcxqOJo00fccfhUoreV-111" value="" style="group" vertex="1" connectable="0" parent="1">
          <mxGeometry x="840" y="100.01" width="300" height="1781" as="geometry" />
        </mxCell>
        <mxCell id="HJcxqOJo00fccfhUoreV-82" value="CartItemsBook&lt;span style=&quot;color: rgba(0, 0, 0, 0); font-family: monospace; font-size: 0px; text-align: start; text-wrap: nowrap;&quot;&gt;%3CmxGraphModel%3E%3Croot%3E%3CmxCell%20id%3D%220%22%2F%3E%3CmxCell%20id%3D%221%22%20parent%3D%220%22%2F%3E%3CmxCell%20id%3D%222%22%20value%3D%22CartItemAddHandler%22%20style%3D%22shape%3DumlLifeline%3Bperimeter%3DlifelinePerimeter%3BwhiteSpace%3Dwrap%3Bhtml%3D1%3Bcontainer%3D1%3BdropTarget%3D0%3Bcollapsible%3D0%3BrecursiveResize%3D0%3BoutlineConnect%3D0%3BportConstraint%3Deastwest%3BnewEdgeStyle%3D%7B%26quot%3Bcurved%26quot%3B%3A0%2C%26quot%3Brounded%26quot%3B%3A0%7D%3B%22%20vertex%3D%221%22%20parent%3D%221%22%3E%3CmxGeometry%20x%3D%22520%22%20y%3D%2299%22%20width%3D%22120%22%20height%3D%221451%22%20as%3D%22geometry%22%2F%3E%3C%2FmxCell%3E%3CmxCell%20id%3D%223%22%20value%3D%22%22%20style%3D%22html%3D1%3Bpoints%3D%5B%5B0%2C0%2C0%2C0%2C5%5D%2C%5B0%2C1%2C0%2C0%2C-5%5D%2C%5B1%2C0%2C0%2C0%2C5%5D%2C%5B1%2C1%2C0%2C0%2C-5%5D%5D%3Bperimeter%3DorthogonalPerimeter%3BoutlineConnect%3D0%3BtargetShapes%3DumlLifeline%3BportConstraint%3Deastwest%3BnewEdgeStyle%3D%7B%26quot%3Bcurved%26quot%3B%3A0%2C%26quot%3Brounded%26quot%3B%3A0%7D%3B%22%20vertex%3D%221%22%20parent%3D%222%22%3E%3CmxGeometry%20x%3D%2255%22%20y%3D%22721%22%20width%3D%2210%22%20height%3D%22229%22%20as%3D%22geometry%22%2F%3E%3C%2FmxCell%3E%3C%2Froot%3E%3C%2FmxGraphModel%3E&lt;/span&gt;Handler" style="shape=umlLifeline;perimeter=lifelinePerimeter;whiteSpace=wrap;html=1;container=1;dropTarget=0;collapsible=0;recursiveResize=0;outlineConnect=0;portConstraint=eastwest;newEdgeStyle={&quot;curved&quot;:0,&quot;rounded&quot;:0};" vertex="1" parent="HJcxqOJo00fccfhUoreV-111">
          <mxGeometry width="130" height="1781" as="geometry" />
        </mxCell>
        <mxCell id="HJcxqOJo00fccfhUoreV-86" value="" style="html=1;points=[[0,0,0,0,5],[0,1,0,0,-5],[1,0,0,0,5],[1,1,0,0,-5]];perimeter=orthogonalPerimeter;outlineConnect=0;targetShapes=umlLifeline;portConstraint=eastwest;newEdgeStyle={&quot;curved&quot;:0,&quot;rounded&quot;:0};" vertex="1" parent="HJcxqOJo00fccfhUoreV-82">
          <mxGeometry x="60" y="1090" width="10" height="200" as="geometry" />
        </mxCell>
        <mxCell id="HJcxqOJo00fccfhUoreV-89" value="Move seats associated with cart to booked state" style="text;html=1;align=left;verticalAlign=middle;resizable=0;points=[];autosize=1;strokeColor=none;fillColor=none;fontSize=10;spacing=1;" vertex="1" parent="HJcxqOJo00fccfhUoreV-111">
          <mxGeometry x="70" y="1139.99" width="230" height="20" as="geometry" />
        </mxCell>
        <mxCell id="HJcxqOJo00fccfhUoreV-93" value="Create payment" style="text;html=1;align=left;verticalAlign=middle;resizable=0;points=[];autosize=1;strokeColor=none;fillColor=none;fontSize=10;spacing=1;" vertex="1" parent="HJcxqOJo00fccfhUoreV-111">
          <mxGeometry x="70" y="1219.99" width="90" height="20" as="geometry" />
        </mxCell>
        <mxCell id="HJcxqOJo00fccfhUoreV-99" value="Get seat ids associated with the cart" style="text;html=1;align=left;verticalAlign=middle;resizable=0;points=[];autosize=1;strokeColor=none;fillColor=none;spacing=1;fontSize=10;" vertex="1" parent="HJcxqOJo00fccfhUoreV-111">
          <mxGeometry x="70" y="1069.99" width="180" height="20" as="geometry" />
        </mxCell>
        <mxCell id="HJcxqOJo00fccfhUoreV-91" value="" style="endArrow=block;endFill=1;html=1;edgeStyle=orthogonalEdgeStyle;align=left;verticalAlign=top;rounded=0;fontSize=10;" edge="1" parent="1" source="HJcxqOJo00fccfhUoreV-86" target="HJcxqOJo00fccfhUoreV-92">
          <mxGeometry x="-1" relative="1" as="geometry">
            <mxPoint x="740" y="1220" as="sourcePoint" />
            <mxPoint x="1130" y="1280" as="targetPoint" />
            <Array as="points">
              <mxPoint x="950" y="1340" />
              <mxPoint x="950" y="1340" />
            </Array>
          </mxGeometry>
        </mxCell>
        <mxCell id="HJcxqOJo00fccfhUoreV-115" value="" style="group" vertex="1" connectable="0" parent="1">
          <mxGeometry x="290" y="100.01" width="372.5" height="1779.99" as="geometry" />
        </mxCell>
        <mxCell id="HJcxqOJo00fccfhUoreV-112" value="" style="group" vertex="1" connectable="0" parent="HJcxqOJo00fccfhUoreV-115">
          <mxGeometry width="372.5" height="1779.99" as="geometry" />
        </mxCell>
        <mxCell id="HJcxqOJo00fccfhUoreV-113" value="" style="group" vertex="1" connectable="0" parent="HJcxqOJo00fccfhUoreV-112">
          <mxGeometry width="372.5" height="1779.99" as="geometry" />
        </mxCell>
        <mxCell id="23khw75I1qNBK4fEZWJX-72" value="&lt;span style=&quot;font-size: 10px; text-align: left; text-wrap: nowrap; background-color: rgb(255, 255, 255);&quot;&gt;ListSectionsWithPriceRange&lt;/span&gt;Handler" style="shape=umlLifeline;perimeter=lifelinePerimeter;whiteSpace=wrap;html=1;container=0;dropTarget=0;collapsible=0;recursiveResize=0;outlineConnect=0;portConstraint=eastwest;newEdgeStyle={&quot;curved&quot;:0,&quot;rounded&quot;:0};fontSize=10;" parent="HJcxqOJo00fccfhUoreV-113" vertex="1">
          <mxGeometry width="175" height="1779.99" as="geometry" />
        </mxCell>
        <mxCell id="HJcxqOJo00fccfhUoreV-2" value="Get sections of event by eventId" style="text;html=1;align=left;verticalAlign=middle;resizable=0;points=[];autosize=1;strokeColor=none;fillColor=none;fontSize=10;textOpacity=90;spacing=1;" vertex="1" parent="HJcxqOJo00fccfhUoreV-113">
          <mxGeometry x="92.5" y="113.99" width="160" height="20" as="geometry" />
        </mxCell>
        <mxCell id="HJcxqOJo00fccfhUoreV-6" value="Get min and max price of available seats for each section" style="text;html=1;align=left;verticalAlign=middle;resizable=0;points=[];autosize=1;strokeColor=none;fillColor=none;fontSize=10;spacing=1;" vertex="1" parent="HJcxqOJo00fccfhUoreV-113">
          <mxGeometry x="92.5" y="182.99" width="280" height="20" as="geometry" />
        </mxCell>
        <mxCell id="Z36fV5GY94czJx9EPfyB-13" value="" style="html=1;points=[[0,0,0,0,5],[0,1,0,0,-5],[1,0,0,0,5],[1,1,0,0,-5]];perimeter=orthogonalPerimeter;outlineConnect=0;targetShapes=umlLifeline;portConstraint=eastwest;newEdgeStyle={&quot;curved&quot;:0,&quot;rounded&quot;:0};" parent="HJcxqOJo00fccfhUoreV-113" vertex="1">
          <mxGeometry x="82.5" y="130" width="10" height="219.99" as="geometry" />
        </mxCell>
        <mxCell id="HJcxqOJo00fccfhUoreV-114" value="" style="group" vertex="1" connectable="0" parent="HJcxqOJo00fccfhUoreV-115">
          <mxGeometry x="87.5" y="259.99" width="35" height="60" as="geometry" />
        </mxCell>
        <mxCell id="HJcxqOJo00fccfhUoreV-10" value="&lt;div style=&quot;text-align: center;&quot;&gt;AppendSectionData()&lt;/div&gt;" style="html=1;align=left;spacingLeft=2;endArrow=block;rounded=0;edgeStyle=orthogonalEdgeStyle;curved=0;rounded=0;fontSize=8;" edge="1" target="HJcxqOJo00fccfhUoreV-9" parent="HJcxqOJo00fccfhUoreV-114">
          <mxGeometry relative="1" as="geometry">
            <mxPoint x="5" as="sourcePoint" />
            <Array as="points">
              <mxPoint x="35" y="30" />
            </Array>
          </mxGeometry>
        </mxCell>
        <mxCell id="HJcxqOJo00fccfhUoreV-9" value="" style="html=1;points=[[0,0,0,0,5],[0,1,0,0,-5],[1,0,0,0,5],[1,1,0,0,-5]];perimeter=orthogonalPerimeter;outlineConnect=0;targetShapes=umlLifeline;portConstraint=eastwest;newEdgeStyle={&quot;curved&quot;:0,&quot;rounded&quot;:0};" vertex="1" parent="HJcxqOJo00fccfhUoreV-114">
          <mxGeometry y="20" width="10" height="40" as="geometry" />
        </mxCell>
        <mxCell id="HJcxqOJo00fccfhUoreV-118" value="" style="group" vertex="1" connectable="0" parent="1">
          <mxGeometry x="130" y="100.00000000000001" width="230" height="1779.99" as="geometry" />
        </mxCell>
        <mxCell id="HJcxqOJo00fccfhUoreV-117" value="" style="group" vertex="1" connectable="0" parent="HJcxqOJo00fccfhUoreV-118">
          <mxGeometry width="100" height="1779.99" as="geometry" />
        </mxCell>
        <mxCell id="23khw75I1qNBK4fEZWJX-71" value="Mediator" style="shape=umlLifeline;perimeter=lifelinePerimeter;whiteSpace=wrap;html=1;container=1;dropTarget=0;collapsible=0;recursiveResize=0;outlineConnect=0;portConstraint=eastwest;newEdgeStyle={&quot;curved&quot;:0,&quot;rounded&quot;:0};" parent="HJcxqOJo00fccfhUoreV-117" vertex="1">
          <mxGeometry width="100" height="1779.99" as="geometry" />
        </mxCell>
        <mxCell id="HJcxqOJo00fccfhUoreV-17" value="" style="html=1;points=[[0,0,0,0,5],[0,1,0,0,-5],[1,0,0,0,5],[1,1,0,0,-5]];perimeter=orthogonalPerimeter;outlineConnect=0;targetShapes=umlLifeline;portConstraint=eastwest;newEdgeStyle={&quot;curved&quot;:0,&quot;rounded&quot;:0};" vertex="1" parent="23khw75I1qNBK4fEZWJX-71">
          <mxGeometry x="45" y="579.99" width="10" height="40.01" as="geometry" />
        </mxCell>
        <mxCell id="HJcxqOJo00fccfhUoreV-80" value="" style="html=1;points=[[0,0,0,0,5],[0,1,0,0,-5],[1,0,0,0,5],[1,1,0,0,-5]];perimeter=orthogonalPerimeter;outlineConnect=0;targetShapes=umlLifeline;portConstraint=eastwest;newEdgeStyle={&quot;curved&quot;:0,&quot;rounded&quot;:0};" vertex="1" parent="23khw75I1qNBK4fEZWJX-71">
          <mxGeometry x="45" y="1089.99" width="10" height="200.01" as="geometry" />
        </mxCell>
        <mxCell id="Z36fV5GY94czJx9EPfyB-12" value="" style="html=1;points=[[0,0,0,0,5],[0,1,0,0,-5],[1,0,0,0,5],[1,1,0,0,-5]];perimeter=orthogonalPerimeter;outlineConnect=0;targetShapes=umlLifeline;portConstraint=eastwest;newEdgeStyle={&quot;curved&quot;:0,&quot;rounded&quot;:0};" parent="HJcxqOJo00fccfhUoreV-117" vertex="1">
          <mxGeometry x="45" y="128.98" width="10" height="220" as="geometry" />
        </mxCell>
        <mxCell id="HJcxqOJo00fccfhUoreV-45" value="" style="html=1;points=[[0,0,0,0,5],[0,1,0,0,-5],[1,0,0,0,5],[1,1,0,0,-5]];perimeter=orthogonalPerimeter;outlineConnect=0;targetShapes=umlLifeline;portConstraint=eastwest;newEdgeStyle={&quot;curved&quot;:0,&quot;rounded&quot;:0};" vertex="1" parent="HJcxqOJo00fccfhUoreV-117">
          <mxGeometry x="45" y="718.98" width="10" height="230" as="geometry" />
        </mxCell>
        <mxCell id="HJcxqOJo00fccfhUoreV-132" value="" style="html=1;points=[[0,0,0,0,5],[0,1,0,0,-5],[1,0,0,0,5],[1,1,0,0,-5]];perimeter=orthogonalPerimeter;outlineConnect=0;targetShapes=umlLifeline;portConstraint=eastwest;newEdgeStyle={&quot;curved&quot;:0,&quot;rounded&quot;:0};" vertex="1" parent="HJcxqOJo00fccfhUoreV-117">
          <mxGeometry x="45" y="1430" width="10" height="200.01" as="geometry" />
        </mxCell>
        <mxCell id="Z36fV5GY94czJx9EPfyB-14" value="HandleRequest()&lt;div&gt;&lt;div style=&quot;font-size: 10px;&quot;&gt;&lt;div style=&quot;font-size: 10px;&quot;&gt;return: SectionWithPriceRange[]&lt;/div&gt;&lt;/div&gt;&lt;/div&gt;" style="endArrow=block;endFill=1;html=1;edgeStyle=orthogonalEdgeStyle;align=left;verticalAlign=top;rounded=0;fontSize=10;" parent="1" target="Z36fV5GY94czJx9EPfyB-13" edge="1" source="Z36fV5GY94czJx9EPfyB-12">
          <mxGeometry x="-1" relative="1" as="geometry">
            <mxPoint x="125" y="228.98000000000002" as="sourcePoint" />
            <mxPoint x="350" y="229.98000000000002" as="targetPoint" />
            <Array as="points">
              <mxPoint x="330" y="230" />
              <mxPoint x="330" y="230" />
            </Array>
          </mxGeometry>
        </mxCell>
        <mxCell id="HJcxqOJo00fccfhUoreV-119" value="" style="group" vertex="1" connectable="0" parent="1">
          <mxGeometry x="-70" y="80" width="90" height="1800" as="geometry" />
        </mxCell>
        <mxCell id="HJcxqOJo00fccfhUoreV-120" value="&lt;div&gt;Payment&lt;/div&gt;&lt;div&gt;Endpoints&lt;/div&gt;" style="shape=umlBoundary;whiteSpace=wrap;html=1;" vertex="1" parent="HJcxqOJo00fccfhUoreV-119">
          <mxGeometry x="-10" width="100" height="85.87241379310346" as="geometry" />
        </mxCell>
        <mxCell id="HJcxqOJo00fccfhUoreV-121" value="" style="endArrow=none;dashed=1;html=1;strokeWidth=1;rounded=0;strokeColor=default;entryX=0.501;entryY=1.021;entryDx=0;entryDy=0;entryPerimeter=0;" edge="1" parent="HJcxqOJo00fccfhUoreV-119" target="HJcxqOJo00fccfhUoreV-120">
          <mxGeometry width="50" height="50" relative="1" as="geometry">
            <mxPoint x="40" y="1800" as="sourcePoint" />
            <mxPoint x="42.5" y="150.2590876015685" as="targetPoint" />
          </mxGeometry>
        </mxCell>
        <mxCell id="HJcxqOJo00fccfhUoreV-130" value="" style="html=1;points=[[0,0,0,0,5],[0,1,0,0,-5],[1,0,0,0,5],[1,1,0,0,-5]];perimeter=orthogonalPerimeter;outlineConnect=0;targetShapes=umlLifeline;portConstraint=eastwest;newEdgeStyle={&quot;curved&quot;:0,&quot;rounded&quot;:0};" vertex="1" parent="HJcxqOJo00fccfhUoreV-119">
          <mxGeometry x="35" y="1450" width="10" height="290" as="geometry" />
        </mxCell>
        <mxCell id="HJcxqOJo00fccfhUoreV-134" value="" style="html=1;points=[[0,0,0,0,5],[0,1,0,0,-5],[1,0,0,0,5],[1,1,0,0,-5]];perimeter=orthogonalPerimeter;outlineConnect=0;targetShapes=umlLifeline;portConstraint=eastwest;newEdgeStyle={&quot;curved&quot;:0,&quot;rounded&quot;:0};" vertex="1" parent="HJcxqOJo00fccfhUoreV-119">
          <mxGeometry x="40" y="1679.97" width="10" height="40" as="geometry" />
        </mxCell>
        <mxCell id="HJcxqOJo00fccfhUoreV-135" value="GenerateResource()" style="html=1;align=left;spacingLeft=2;endArrow=block;rounded=0;edgeStyle=orthogonalEdgeStyle;curved=0;rounded=0;fontSize=8;" edge="1" parent="HJcxqOJo00fccfhUoreV-119" target="HJcxqOJo00fccfhUoreV-134">
          <mxGeometry x="-0.0005" relative="1" as="geometry">
            <mxPoint x="45" y="1670.004482758621" as="sourcePoint" />
            <Array as="points">
              <mxPoint x="80" y="1669.97" />
              <mxPoint x="80" y="1699.97" />
            </Array>
            <mxPoint as="offset" />
          </mxGeometry>
        </mxCell>
        <mxCell id="HJcxqOJo00fccfhUoreV-128" value="payments/{payment_id}/complete&lt;div&gt;return PaymentResultResource&lt;/div&gt;" style="endArrow=block;endFill=1;html=1;edgeStyle=orthogonalEdgeStyle;align=left;verticalAlign=top;rounded=0;fontSize=10;" edge="1" parent="1" source="23khw75I1qNBK4fEZWJX-38" target="HJcxqOJo00fccfhUoreV-130">
          <mxGeometry x="-1" relative="1" as="geometry">
            <mxPoint x="-425" y="1530" as="sourcePoint" />
            <mxPoint x="-60" y="1530" as="targetPoint" />
            <Array as="points">
              <mxPoint x="-160" y="1530" />
              <mxPoint x="-160" y="1530" />
            </Array>
            <mxPoint as="offset" />
          </mxGeometry>
        </mxCell>
        <mxCell id="HJcxqOJo00fccfhUoreV-129" value="POST" style="text;html=1;align=left;verticalAlign=middle;resizable=0;points=[];autosize=1;strokeColor=none;fillColor=none;fontSize=10;spacing=1;" vertex="1" parent="1">
          <mxGeometry x="-519.5" y="1510" width="50" height="20" as="geometry" />
        </mxCell>
        <mxCell id="HJcxqOJo00fccfhUoreV-133" value="Send(CompletePayment)&lt;div&gt;return: PaymentId&lt;/div&gt;" style="endArrow=block;endFill=1;html=1;edgeStyle=orthogonalEdgeStyle;align=left;verticalAlign=top;rounded=0;fontSize=10;" edge="1" parent="1" source="HJcxqOJo00fccfhUoreV-130" target="HJcxqOJo00fccfhUoreV-132">
          <mxGeometry x="-1" relative="1" as="geometry">
            <mxPoint x="-100" y="1560" as="sourcePoint" />
            <mxPoint x="220" y="1560" as="targetPoint" />
            <Array as="points">
              <mxPoint x="120" y="1530" />
              <mxPoint x="120" y="1530" />
            </Array>
          </mxGeometry>
        </mxCell>
        <mxCell id="HJcxqOJo00fccfhUoreV-136" value="PaymentCompleteHandler" style="shape=umlLifeline;perimeter=lifelinePerimeter;whiteSpace=wrap;html=1;container=1;dropTarget=0;collapsible=0;recursiveResize=0;outlineConnect=0;portConstraint=eastwest;newEdgeStyle={&quot;curved&quot;:0,&quot;rounded&quot;:0};" vertex="1" parent="1">
          <mxGeometry x="1060" y="100.01" width="150" height="1779.99" as="geometry" />
        </mxCell>
        <mxCell id="HJcxqOJo00fccfhUoreV-137" value="" style="html=1;points=[[0,0,0,0,5],[0,1,0,0,-5],[1,0,0,0,5],[1,1,0,0,-5]];perimeter=orthogonalPerimeter;outlineConnect=0;targetShapes=umlLifeline;portConstraint=eastwest;newEdgeStyle={&quot;curved&quot;:0,&quot;rounded&quot;:0};" vertex="1" parent="HJcxqOJo00fccfhUoreV-136">
          <mxGeometry x="70" y="1429.99" width="10" height="200.01" as="geometry" />
        </mxCell>
        <mxCell id="HJcxqOJo00fccfhUoreV-138" value="HandleRequest()&lt;div&gt;&lt;div style=&quot;font-size: 10px;&quot;&gt;&lt;div style=&quot;font-size: 10px;&quot;&gt;return: PaymentId&lt;/div&gt;&lt;/div&gt;&lt;/div&gt;" style="endArrow=block;endFill=1;html=1;edgeStyle=orthogonalEdgeStyle;align=left;verticalAlign=top;rounded=0;fontSize=10;" edge="1" parent="1" source="HJcxqOJo00fccfhUoreV-132" target="HJcxqOJo00fccfhUoreV-137">
          <mxGeometry x="-1" relative="1" as="geometry">
            <mxPoint x="300" y="1540" as="sourcePoint" />
            <mxPoint x="1015" y="1540" as="targetPoint" />
            <Array as="points">
              <mxPoint x="670" y="1530" />
              <mxPoint x="670" y="1530" />
            </Array>
          </mxGeometry>
        </mxCell>
        <mxCell id="HJcxqOJo00fccfhUoreV-140" value="" style="endArrow=block;endFill=1;html=1;edgeStyle=orthogonalEdgeStyle;align=left;verticalAlign=top;rounded=0;fontSize=10;" edge="1" parent="1" source="HJcxqOJo00fccfhUoreV-137" target="HJcxqOJo00fccfhUoreV-139">
          <mxGeometry x="-1" relative="1" as="geometry">
            <mxPoint x="990" y="1490" as="sourcePoint" />
            <mxPoint x="1450" y="1490" as="targetPoint" />
            <Array as="points">
              <mxPoint x="1260" y="1530" />
              <mxPoint x="1260" y="1530" />
            </Array>
          </mxGeometry>
        </mxCell>
        <mxCell id="HJcxqOJo00fccfhUoreV-141" value="Get seat ids associated with the payment" style="text;html=1;align=left;verticalAlign=middle;resizable=0;points=[];autosize=1;strokeColor=none;fillColor=none;spacing=1;fontSize=10;" vertex="1" parent="1">
          <mxGeometry x="1145" y="1510" width="200" height="20" as="geometry" />
        </mxCell>
        <mxCell id="HJcxqOJo00fccfhUoreV-142" value="" style="html=1;verticalAlign=bottom;endArrow=open;dashed=1;endSize=8;curved=0;rounded=0;" edge="1" parent="1" source="HJcxqOJo00fccfhUoreV-139" target="HJcxqOJo00fccfhUoreV-137">
          <mxGeometry relative="1" as="geometry">
            <mxPoint x="1490" y="1580" as="sourcePoint" />
            <mxPoint x="1030" y="1581" as="targetPoint" />
            <Array as="points">
              <mxPoint x="1320" y="1570" />
              <mxPoint x="1200" y="1570" />
              <mxPoint x="1170" y="1570" />
            </Array>
          </mxGeometry>
        </mxCell>
        <mxCell id="HJcxqOJo00fccfhUoreV-143" value="&amp;lt;seatId[]&amp;gt;" style="edgeLabel;html=1;align=center;verticalAlign=middle;resizable=0;points=[];fontSize=10;" vertex="1" connectable="0" parent="HJcxqOJo00fccfhUoreV-142">
          <mxGeometry x="0.0731" relative="1" as="geometry">
            <mxPoint as="offset" />
          </mxGeometry>
        </mxCell>
        <mxCell id="HJcxqOJo00fccfhUoreV-145" value="Move seats associated with payment to sold state" style="text;html=1;align=left;verticalAlign=middle;resizable=0;points=[];autosize=1;strokeColor=none;fillColor=none;fontSize=10;spacing=1;" vertex="1" parent="1">
          <mxGeometry x="1145" y="1580" width="240" height="20" as="geometry" />
        </mxCell>
        <mxCell id="HJcxqOJo00fccfhUoreV-147" value="" style="endArrow=block;endFill=1;html=1;edgeStyle=orthogonalEdgeStyle;align=left;verticalAlign=top;rounded=0;fontSize=10;" edge="1" parent="1" source="HJcxqOJo00fccfhUoreV-137" target="HJcxqOJo00fccfhUoreV-146">
          <mxGeometry x="-1" relative="1" as="geometry">
            <mxPoint x="1015" y="1620" as="sourcePoint" />
            <mxPoint x="1475" y="1620" as="targetPoint" />
            <Array as="points">
              <mxPoint x="1260" y="1600" />
              <mxPoint x="1260" y="1600" />
            </Array>
          </mxGeometry>
        </mxCell>
        <mxCell id="HJcxqOJo00fccfhUoreV-146" value="" style="html=1;points=[[0,0,0,0,5],[0,1,0,0,-5],[1,0,0,0,5],[1,1,0,0,-5]];perimeter=orthogonalPerimeter;outlineConnect=0;targetShapes=umlLifeline;portConstraint=eastwest;newEdgeStyle={&quot;curved&quot;:0,&quot;rounded&quot;:0};" vertex="1" parent="1">
          <mxGeometry x="1370" y="1600" width="10" height="40" as="geometry" />
        </mxCell>
        <mxCell id="HJcxqOJo00fccfhUoreV-148" value="" style="html=1;verticalAlign=bottom;endArrow=open;dashed=1;endSize=8;curved=0;rounded=0;" edge="1" parent="1" source="HJcxqOJo00fccfhUoreV-146" target="HJcxqOJo00fccfhUoreV-137">
          <mxGeometry relative="1" as="geometry">
            <mxPoint x="1370" y="1650" as="sourcePoint" />
            <mxPoint x="1145" y="1651" as="targetPoint" />
            <Array as="points">
              <mxPoint x="1320" y="1640" />
              <mxPoint x="1200" y="1640" />
              <mxPoint x="1160" y="1640" />
            </Array>
          </mxGeometry>
        </mxCell>
        <mxCell id="HJcxqOJo00fccfhUoreV-149" value="&amp;lt;updatedCount&amp;gt;" style="edgeLabel;html=1;align=center;verticalAlign=middle;resizable=0;points=[];fontSize=10;" vertex="1" connectable="0" parent="HJcxqOJo00fccfhUoreV-148">
          <mxGeometry x="0.0731" relative="1" as="geometry">
            <mxPoint as="offset" />
          </mxGeometry>
        </mxCell>
        <mxCell id="HJcxqOJo00fccfhUoreV-151" value="" style="endArrow=block;endFill=1;html=1;edgeStyle=orthogonalEdgeStyle;align=left;verticalAlign=top;rounded=0;fontSize=10;" edge="1" parent="1" source="HJcxqOJo00fccfhUoreV-137" target="HJcxqOJo00fccfhUoreV-150">
          <mxGeometry x="-1" relative="1" as="geometry">
            <mxPoint x="1152.5" y="1650" as="sourcePoint" />
            <mxPoint x="1377.5" y="1650" as="targetPoint" />
            <Array as="points">
              <mxPoint x="1340" y="1670" />
              <mxPoint x="1340" y="1670" />
            </Array>
          </mxGeometry>
        </mxCell>
        <mxCell id="HJcxqOJo00fccfhUoreV-152" value="Complete payment" style="text;html=1;align=left;verticalAlign=middle;resizable=0;points=[];autosize=1;strokeColor=none;fillColor=none;fontSize=10;spacing=1;" vertex="1" parent="1">
          <mxGeometry x="1145" y="1650" width="110" height="20" as="geometry" />
        </mxCell>
        <mxCell id="HJcxqOJo00fccfhUoreV-153" value="" style="html=1;verticalAlign=bottom;endArrow=open;dashed=1;endSize=8;curved=0;rounded=0;" edge="1" parent="1" source="HJcxqOJo00fccfhUoreV-150" target="HJcxqOJo00fccfhUoreV-137">
          <mxGeometry relative="1" as="geometry">
            <mxPoint x="1377.5" y="1720" as="sourcePoint" />
            <mxPoint x="1152.5" y="1720" as="targetPoint" />
            <Array as="points">
              <mxPoint x="1328" y="1710" />
              <mxPoint x="1170" y="1710" />
            </Array>
          </mxGeometry>
        </mxCell>
        <mxCell id="HJcxqOJo00fccfhUoreV-154" value="&amp;lt;updatedCount&amp;gt;" style="edgeLabel;html=1;align=center;verticalAlign=middle;resizable=0;points=[];fontSize=10;" vertex="1" connectable="0" parent="HJcxqOJo00fccfhUoreV-153">
          <mxGeometry x="0.0731" relative="1" as="geometry">
            <mxPoint as="offset" />
          </mxGeometry>
        </mxCell>
        <mxCell id="HJcxqOJo00fccfhUoreV-155" value="" style="html=1;verticalAlign=bottom;endArrow=open;dashed=1;endSize=8;curved=0;rounded=0;" edge="1" parent="1" source="HJcxqOJo00fccfhUoreV-137" target="HJcxqOJo00fccfhUoreV-132">
          <mxGeometry relative="1" as="geometry">
            <mxPoint x="995" y="1730" as="sourcePoint" />
            <mxPoint x="280" y="1730" as="targetPoint" />
            <Array as="points">
              <mxPoint x="475" y="1730" />
            </Array>
          </mxGeometry>
        </mxCell>
        <mxCell id="HJcxqOJo00fccfhUoreV-156" value="" style="html=1;verticalAlign=bottom;endArrow=open;dashed=1;endSize=8;curved=0;rounded=0;" edge="1" parent="1" source="HJcxqOJo00fccfhUoreV-132" target="HJcxqOJo00fccfhUoreV-130">
          <mxGeometry relative="1" as="geometry">
            <mxPoint x="219" y="1820" as="sourcePoint" />
            <mxPoint x="-100" y="1820" as="targetPoint" />
            <Array as="points">
              <mxPoint x="30" y="1730" />
            </Array>
          </mxGeometry>
        </mxCell>
        <mxCell id="HJcxqOJo00fccfhUoreV-157" value="" style="html=1;verticalAlign=bottom;endArrow=open;dashed=1;endSize=8;curved=0;rounded=0;" edge="1" parent="1" source="HJcxqOJo00fccfhUoreV-130" target="23khw75I1qNBK4fEZWJX-38">
          <mxGeometry relative="1" as="geometry">
            <mxPoint x="-87.5" y="1820" as="sourcePoint" />
            <mxPoint x="-452.5" y="1820" as="targetPoint" />
            <Array as="points">
              <mxPoint x="-202.5" y="1820" />
            </Array>
          </mxGeometry>
        </mxCell>
      </root>
    </mxGraphModel>
  </diagram>
</mxfile>
